<svg xmlns="http://www.w3.org/2000/svg" viewBox="0 0 128 128" width="64px" height="64px">
  <path fill="#fff"
        d="M81,112.5H47c-6.3,0-11.5-4.8-12-11.1l-6.7-81.5c-0.2-2.4,1.6-4.4,4-4.4h63.5c2.3,0,4.2,2,4,4.4 L93,101.4C92.5,107.7,87.3,112.5,81,112.5"/>
  <path fill="#fff"
        d="M93,101.4l1.1-13.1L94,88.9c-0.3,4.2-3.8,7.4-8,7.4H42c-4.2,0-7.6-3.2-8-7.399l-0.1-0.7l1.1,13.1 c0.5,6.3,5.7,11.101,12,11.101h34C87.3,112.5,92.5,107.7,93,101.4z"/>
  <path fill="#c7d7e2" d="M39,96.2c-2.3,0-4.3-1.8-4.5-4.2l-3.8-45.8h66.5L93.5,92c-0.2,2.4-2.2,4.2-4.5,4.2H39"/>
  <path fill="#f4f7f9"
        d="M52.8 73.4c-3.313 0-6 2.686-6 6 0 3.313 2.687 6 6 6 3.314 0 6-2.687 6-6C58.8 76.086 56.114 73.4 52.8 73.4M60.8 54.2c-1.657 0-3 1.343-3 3s1.343 3 3 3 3-1.343 3-3S62.457 54.2 60.8 54.2M70.8 67.3c-2.209 0-4 1.791-4 4s1.791 4 4 4 4-1.791 4-4S73.009 67.3 70.8 67.3"/>
  <path fill="#454b54"
        d="M86,99.3H42c-5.7,0-10.5-4.5-11-10.2c-0.1-1.7,1.1-3.1,2.7-3.2c1.7-0.101,3.1,1.1,3.2,2.699 c0.2,2.601,2.4,4.7,5,4.7h44c2.6,0,4.8-2,5-4.7C91,86.9,92.5,85.7,94.1,85.9c1.7,0.1,2.9,1.6,2.7,3.199C96.5,94.9,91.7,99.3,86,99.3 z"/>
  <path fill="#454b54"
        d="M81,115.5H47c-7.8,0-14.3-6.1-15-13.9l-6.7-81.5c-0.2-2,0.5-3.9,1.8-5.4c1.3-1.4,3.2-2.3,5.1-2.3 h63.5c1.899,0,3.8,0.8,5.1,2.3c1.3,1.4,2,3.4,1.8,5.4L96,101.6C95.3,109.4,88.8,115.5,81,115.5z M32.3,18.5c-0.4,0-0.6,0.2-0.7,0.3 c-0.1,0.1-0.3,0.4-0.3,0.8l6.7,81.5c0.4,4.7,4.3,8.4,9,8.4h34c4.7,0,8.6-3.7,9-8.4l6.7-81.5c0-0.4-0.2-0.7-0.3-0.8 c-0.101-0.1-0.4-0.3-0.7-0.3H32.3z"/>
</svg>
